<svg width="48" height="48" viewBox="0 0 48 48" fill="none" xmlns="http://www.w3.org/2000/svg">
<g clip-path="url(#clip0_3663_3139)">
<path d="M24 48C10.7452 48 0 37.2548 0 24C0 10.7452 10.7452 0 24 0C37.2548 0 48 10.7452 48 24C48 37.2548 37.2548 48 24 48Z" fill="#7772F1"/>
<path fill-rule="evenodd" clip-rule="evenodd" d="M21.2071 18.7929C20.8166 18.4024 20.1834 18.4024 19.7929 18.7929L15.2929 23.2929C14.9024 23.6834 14.9024 24.3166 15.2929 24.7071L19.7929 29.2071C20.1834 29.5976 20.8166 29.5976 21.2071 29.2071C21.5976 28.8166 21.5976 28.1834 21.2071 27.7929L18.4142 25H32C32.5523 25 33 24.5523 33 24C33 23.4477 32.5523 23 32 23H18.4142L21.2071 20.2071C21.5976 19.8166 21.5976 19.1834 21.2071 18.7929Z" fill="white"/>
</g>
<defs>
<clipPath id="clip0_3663_3139">
<rect width="48" height="48" fill="white" transform="matrix(-1 0 0 1 48 0)"/>
</clipPath>
</defs>
</svg>

